<svg width="16" height="16" viewBox="0 0 16 16" fill="none" xmlns="http://www.w3.org/2000/svg">
<path d="M14.5678 0.258628L8.00083 6.82626L1.4339 0.258628C1.27596 0.114079 1.06834 0.0360483 0.854299 0.0407914C0.640258 0.0455344 0.436299 0.132686 0.284911 0.284089C0.133524 0.435493 0.0463822 0.639473 0.0416396 0.853538C0.036897 1.0676 0.114919 1.27524 0.259453 1.4332L6.82305 8.00083L0.257787 14.5668C0.177578 14.6432 0.11346 14.735 0.0692014 14.8365C0.0249425 14.9381 0.00143588 15.0475 6.37508e-05 15.1583C-0.00130838 15.2691 0.0194817 15.3791 0.0612114 15.4817C0.102941 15.5844 0.164768 15.6777 0.243059 15.7561C0.32135 15.8345 0.414524 15.8965 0.517105 15.9383C0.619685 15.9802 0.729602 16.0012 0.840394 16C0.951186 15.9987 1.06062 15.9754 1.16225 15.9313C1.26389 15.8871 1.35569 15.8231 1.43224 15.743L8.00083 9.17708L14.5678 15.7447C14.7257 15.8893 14.9333 15.9673 15.1474 15.9625C15.3614 15.9578 15.5654 15.8706 15.7168 15.7192C15.8681 15.5678 15.9553 15.3639 15.96 15.1498C15.9648 14.9357 15.8867 14.7281 15.7422 14.5701L9.17528 8.0025L15.7422 1.4332C15.8224 1.35676 15.8865 1.26504 15.9308 1.16346C15.9751 1.06187 15.9986 0.952464 15.9999 0.841662C16.0013 0.73086 15.9805 0.620902 15.9388 0.518251C15.8971 0.415601 15.8352 0.322328 15.7569 0.243918C15.6786 0.165508 15.5855 0.103542 15.4829 0.0616621C15.3803 0.0197825 15.2704 -0.00116522 15.1596 4.99992e-05C15.0488 0.00126522 14.9394 0.024619 14.8377 0.0687386C14.7361 0.112858 14.6443 0.176853 14.5678 0.256962V0.258628Z" fill="#484848"/>
</svg>
