<svg width="16" height="16" viewBox="0 0 16 16" fill="none" xmlns="http://www.w3.org/2000/svg">
<path fill-rule="evenodd" clip-rule="evenodd" d="M11.3851 12.447C10.0371 13.5241 8.32776 14.0442 6.60827 13.9004C4.88877 13.7566 3.28961 12.9598 2.13922 11.6738C0.988832 10.3877 0.374549 8.70996 0.422536 6.98513C0.470522 5.2603 1.17713 3.61931 2.39725 2.3992C3.61736 1.17909 5.25835 0.472475 6.98318 0.424489C8.70801 0.376502 10.3857 0.990785 11.6718 2.14117C12.9579 3.29156 13.7546 4.89072 13.8984 6.61022C14.0422 8.32972 13.5222 10.039 12.4451 11.387L17.6011 16.542C17.6748 16.6107 17.7339 16.6935 17.7749 16.7855C17.8159 16.8775 17.8379 16.9768 17.8397 17.0775C17.8415 17.1782 17.8229 17.2783 17.7852 17.3716C17.7475 17.465 17.6913 17.5499 17.6201 17.6211C17.5489 17.6923 17.4641 17.7484 17.3707 17.7862C17.2773 17.8239 17.1773 17.8424 17.0766 17.8406C16.9759 17.8389 16.8766 17.8168 16.7846 17.7758C16.6926 17.7348 16.6098 17.6757 16.5411 17.602L11.3851 12.447ZM3.46009 10.885C2.72613 10.151 2.22624 9.21587 2.0236 8.19781C1.82096 7.17976 1.92466 6.12448 2.3216 5.16534C2.71854 4.20621 3.3909 3.38627 4.2537 2.80914C5.11651 2.23202 6.13103 1.92362 7.16906 1.92293C8.20709 1.92223 9.22203 2.22926 10.0856 2.80522C10.9492 3.38118 11.6226 4.20021 12.0209 5.15882C12.4191 6.11742 12.5242 7.17256 12.323 8.19088C12.1217 9.20921 11.6231 10.145 10.8901 10.88L10.8851 10.885L10.8801 10.889C9.89518 11.8717 8.56052 12.4232 7.16926 12.4224C5.77801 12.4217 4.44394 11.8687 3.46009 10.885Z" fill="#484848"/>
</svg>
